<svg width="88" height="22" viewBox="0 0 88 22" fill="none" xmlns="http://www.w3.org/2000/svg">
<path d="M13.333 21.68H13.493C13.6423 21.68 13.781 21.6267 13.909 21.52C14.037 21.392 14.1437 21.2427 14.229 21.072C14.3357 20.88 14.4103 20.688 14.453 20.496C14.4957 20.2827 14.517 20.0907 14.517 19.92V11.216H4.277V19.92C4.277 20.0907 4.29833 20.2827 4.341 20.496C4.38367 20.688 4.44767 20.8693 4.533 21.04C4.61833 21.2107 4.71433 21.36 4.821 21.488C4.949 21.616 5.09833 21.68 5.269 21.68H5.429V22H0.949V21.68H1.109C1.25833 21.68 1.397 21.6267 1.525 21.52C1.653 21.392 1.75967 21.2427 1.845 21.072C1.95167 20.88 2.02633 20.688 2.069 20.496C2.11167 20.2827 2.133 20.0907 2.133 19.92V2.864C2.133 2.71467 2.11167 2.544 2.069 2.352C2.02633 2.16 1.96233 1.97867 1.877 1.808C1.79167 1.63733 1.685 1.49866 1.557 1.392C1.429 1.264 1.27967 1.2 1.109 1.2H0.949V0.879999H5.429V1.2H5.269C5.09833 1.2 4.949 1.264 4.821 1.392C4.693 1.49866 4.58633 1.63733 4.501 1.808C4.437 1.97867 4.38367 2.16 4.341 2.352C4.29833 2.544 4.277 2.71467 4.277 2.864V10.096H14.517V2.864C14.517 2.71467 14.4957 2.544 14.453 2.352C14.4103 2.16 14.3463 1.97867 14.261 1.808C14.1757 1.63733 14.069 1.49866 13.941 1.392C13.813 1.264 13.6637 1.2 13.493 1.2H13.333V0.879999H17.813V1.2H17.653C17.4823 1.2 17.333 1.264 17.205 1.392C17.077 1.49866 16.9703 1.63733 16.885 1.808C16.821 1.97867 16.7677 2.16 16.725 2.352C16.6823 2.544 16.661 2.71467 16.661 2.864V19.92C16.661 20.0907 16.6823 20.2827 16.725 20.496C16.789 20.688 16.8637 20.8693 16.949 21.04C17.0343 21.2107 17.1303 21.36 17.237 21.488C17.365 21.616 17.5037 21.68 17.653 21.68H17.813V22H13.333V21.68ZM20.5993 0.879999H25.1753V1.2H25.0153C24.8659 1.2 24.7273 1.264 24.5993 1.392C24.4713 1.49866 24.3646 1.63733 24.2793 1.808C24.1939 1.95733 24.1193 2.13867 24.0553 2.352C24.0126 2.544 23.9913 2.71467 23.9913 2.864V19.92C23.9913 20.0907 24.0126 20.2827 24.0553 20.496C24.0979 20.688 24.1619 20.8693 24.2473 21.04C24.3539 21.2107 24.4606 21.36 24.5673 21.488C24.6953 21.616 24.8446 21.68 25.0153 21.68H25.1753V22H20.5993V21.68H20.7593C20.9299 21.68 21.0793 21.6267 21.2073 21.52C21.3353 21.392 21.4419 21.2427 21.5273 21.072C21.6339 20.88 21.7086 20.688 21.7513 20.496C21.7939 20.2827 21.8153 20.0907 21.8153 19.92V2.864C21.8153 2.71467 21.7939 2.544 21.7513 2.352C21.7086 2.16 21.6339 1.97867 21.5273 1.808C21.4419 1.63733 21.3353 1.49866 21.2073 1.392C21.0793 1.264 20.9299 1.2 20.7593 1.2H20.5993V0.879999ZM32.6685 21.68H32.8285V22H28.2525V21.68H28.4125C28.5832 21.68 28.7325 21.616 28.8605 21.488C28.9885 21.36 29.0952 21.2107 29.1805 21.04C29.2872 20.8693 29.3618 20.688 29.4045 20.496C29.4472 20.2827 29.4685 20.0907 29.4685 19.92V2.864C29.4685 2.71467 29.4472 2.544 29.4045 2.352C29.3618 2.16 29.2872 1.97867 29.1805 1.808C29.0952 1.63733 28.9885 1.49866 28.8605 1.392C28.7325 1.264 28.5938 1.2 28.4445 1.2H28.2845V0.879999H32.8605V1.2H32.7005C32.5298 1.2 32.3805 1.264 32.2525 1.392C32.1245 1.49866 32.0072 1.63733 31.9005 1.808C31.8152 1.97867 31.7405 2.16 31.6765 2.352C31.6338 2.544 31.6125 2.71467 31.6125 2.864V10.288L39.7405 2.224C39.8685 2.07467 39.9325 1.904 39.9325 1.712C39.9325 1.37067 39.8045 1.2 39.5485 1.2H39.3885V0.879999H43.2925V1.2H43.1325C42.8338 1.2 42.5245 1.30667 42.2045 1.52C41.8845 1.73333 41.5645 2 41.2445 2.32L34.5245 9.008L41.5965 19.728C41.6178 19.7707 41.7138 19.8987 41.8845 20.112C42.0552 20.3253 42.2578 20.5493 42.4925 20.784C42.7485 21.0187 43.0258 21.232 43.3245 21.424C43.6445 21.5947 43.9645 21.68 44.2845 21.68V22H43.5165C42.8765 22 42.3325 21.968 41.8845 21.904C41.4578 21.8187 41.0845 21.6907 40.7645 21.52C40.4445 21.3493 40.1565 21.136 39.9005 20.88C39.6658 20.624 39.4205 20.304 39.1645 19.92L32.9565 10.544L31.6125 11.92V19.92C31.6125 20.0907 31.6338 20.272 31.6765 20.464C31.7405 20.656 31.8152 20.848 31.9005 21.04C31.9858 21.2107 32.0925 21.36 32.2205 21.488C32.3485 21.616 32.4978 21.68 32.6685 21.68ZM58.6015 21.68H58.7615C59.2735 21.68 59.5295 21.4453 59.5295 20.976C59.5295 20.8053 59.4975 20.624 59.4335 20.432L56.5535 12.656H50.9535L48.1695 20.304C48.1055 20.4747 48.0735 20.6347 48.0735 20.784C48.0735 21.0613 48.1482 21.2853 48.2975 21.456C48.4468 21.6053 48.6068 21.68 48.7775 21.68H48.9375V22H45.3855V21.68H45.5455C45.8228 21.68 46.0895 21.52 46.3455 21.2C46.6228 20.8587 46.8468 20.464 47.0175 20.016L54.3455 0.495998L61.5135 19.824C61.6628 20.2507 61.8655 20.6667 62.1215 21.072C62.3988 21.4773 62.7508 21.68 63.1775 21.68H63.3375V22H58.6015V21.68ZM51.2735 11.568H56.2015L53.7375 4.88L51.2735 11.568ZM69.6045 21.68H69.7645V22H65.2525V21.68H65.4125C65.5618 21.68 65.7005 21.616 65.8285 21.488C65.9565 21.36 66.0632 21.2107 66.1485 21.04C66.2552 20.8693 66.3298 20.688 66.3725 20.496C66.4152 20.2827 66.4365 20.0907 66.4365 19.92V2.864C66.4365 2.71467 66.4152 2.544 66.3725 2.352C66.3298 2.16 66.2552 1.97867 66.1485 1.808C66.0632 1.63733 65.9565 1.49866 65.8285 1.392C65.7005 1.264 65.5618 1.2 65.4125 1.2H65.2525V0.879999H70.8205C72.9538 0.879999 74.5965 1.296 75.7485 2.128C76.9218 2.96 77.5085 4.18667 77.5085 5.808C77.5085 6.61867 77.3698 7.33333 77.0925 7.952C76.8365 8.54933 76.4845 9.072 76.0365 9.52C75.5885 9.94667 75.0552 10.2987 74.4365 10.576C73.8392 10.832 73.1992 11.024 72.5165 11.152L74.8205 14.672C75.3752 15.5253 75.9405 16.368 76.5165 17.2C77.0925 18.0107 77.6578 18.8533 78.2125 19.728C78.3618 19.9413 78.5218 20.1653 78.6925 20.4C78.8845 20.6347 79.0765 20.848 79.2685 21.04C79.4818 21.232 79.6952 21.392 79.9085 21.52C80.1432 21.6267 80.3778 21.68 80.6125 21.68V22H79.2365C78.3832 22 77.6792 21.7973 77.1245 21.392C76.5912 20.9653 76.1432 20.4747 75.7805 19.92C74.8205 18.512 73.8605 17.0827 72.9005 15.632C71.9618 14.1813 71.0232 12.752 70.0845 11.344C69.8498 11.3227 69.5938 11.3013 69.3165 11.28C69.0605 11.2373 68.8152 11.1947 68.5805 11.152V19.92C68.5805 20.0907 68.6018 20.2827 68.6445 20.496C68.6872 20.688 68.7512 20.8693 68.8365 21.04C68.9432 21.2107 69.0498 21.36 69.1565 21.488C69.2845 21.616 69.4338 21.68 69.6045 21.68ZM68.5805 1.968V10.096H68.7405C68.9112 10.1173 69.1778 10.1387 69.5405 10.16C69.9245 10.16 70.3938 10.16 70.9485 10.16C71.3965 10.16 71.8658 10.096 72.3565 9.968C72.8685 9.81867 73.3378 9.584 73.7645 9.264C74.2125 8.92267 74.5752 8.48533 74.8525 7.952C75.1512 7.41867 75.3005 6.74667 75.3005 5.936C75.3005 5.12533 75.1405 4.464 74.8205 3.952C74.5218 3.44 74.0952 3.03467 73.5405 2.736C73.0072 2.43733 72.3565 2.23466 71.5885 2.128C70.8205 2.02133 69.9778 1.968 69.0605 1.968H68.5805ZM82.6618 0.879999H87.2378V1.2H87.0778C86.9284 1.2 86.7898 1.264 86.6618 1.392C86.5338 1.49866 86.4271 1.63733 86.3418 1.808C86.2564 1.95733 86.1818 2.13867 86.1178 2.352C86.0751 2.544 86.0538 2.71467 86.0538 2.864V19.92C86.0538 20.0907 86.0751 20.2827 86.1178 20.496C86.1604 20.688 86.2244 20.8693 86.3098 21.04C86.4164 21.2107 86.5231 21.36 86.6298 21.488C86.7578 21.616 86.9071 21.68 87.0778 21.68H87.2378V22H82.6618V21.68H82.8218C82.9924 21.68 83.1418 21.6267 83.2698 21.52C83.3978 21.392 83.5044 21.2427 83.5898 21.072C83.6964 20.88 83.7711 20.688 83.8138 20.496C83.8564 20.2827 83.8778 20.0907 83.8778 19.92V2.864C83.8778 2.71467 83.8564 2.544 83.8138 2.352C83.7711 2.16 83.6964 1.97867 83.5898 1.808C83.5044 1.63733 83.3978 1.49866 83.2698 1.392C83.1418 1.264 82.9924 1.2 82.8218 1.2H82.6618V0.879999Z" fill="white"/>
</svg>
